# xmcd
#
# Track frame offsets:
#	150
#	7521
#	18246
#	30600
#	48249
#	53703
#	70513
#	87075
#	102200
#	111315
#	127224
#	139297
#	150702
#	164523
#	179334
#	190454
#	202971
#	214901
#	226571
#	237248
#
# Disc length: 3445 seconds
#
# Revision: 1
# Processed by: cddbd v1.5.2PL0 Copyright (c) Steve Scherf et al.
# Submitted via: dBpowerAMP V4.0
#
DISCID=040d7314
DTITLE=Various Artist - Country Spirit - CD2 Classics
DYEAR=2010
DGENRE=Country
TTITLE0=Merle Haggard - I'm A Lonesome Fugitive
TTITLE1=Patsy Cline - Honk Tonk Merry Go Round
TTITLE2=Johnny Paycheck - Take This Job And Shove It 
TTITLE3=Amelia White - Windowpane
TTITLE4=Ferlin Husky - Beaver On Mu Lap Bear On My Tail
TTITLE5=Carll Hayes - Whish I Hadn't Stayed So Long
TTITLE6=Hi- Lo Band - Lonely Side Of Town
TTITLE7=Jamie Hiten - Thinking About It 
TTITLE8=Stacey Earle and Mark Stuart - Walkin' With Travis
TTITLE9=Hanky Pond Roller - Run Away
TTITLE10=George Morgan - I Couldn't See
TTITLE11=Guy Mitchell - Traveling Shoes
TTITLE12=Lee Greenwood - Dixie Road
TTITLE13=Juice Newton - Queen Of Hearts
TTITLE14=Sandy Posey - I Will Follow Him
TTITLE15=Freddy Fender - Wasted Days And Wasted Nights
TTITLE16=Holy Dunn - There Goes My Heart Again
TTITLE17=Jeanne Pruett - Standing On The Promises
TTITLE18=Janie Fricke - Down To My Last Broken Heart
TTITLE19=Marty Robbins - El Paso
EXTD=
EXTT0=
EXTT1=
EXTT2=
EXTT3=
EXTT4=
EXTT5=
EXTT6=
EXTT7=
EXTT8=
EXTT9=
EXTT10=
EXTT11=
EXTT12=
EXTT13=
EXTT14=
EXTT15=
EXTT16=
EXTT17=
EXTT18=
EXTT19=
PLAYORDER=
